#N canvas 1307 -1351 2400 1296 12;
#X obj 564 899 dac~;
#X obj 519 797 *~;
#X obj 573 738 line~;
#X obj 333 359 pack f 50;
#X obj 319 408 line~;
#X obj 659 310 change;
#N canvas 0 50 450 250 (subpatch) 0;
#X array chime 25909 float 2;
#A color 0;
#A width 2;
#X coords 0 1 25909 -1 113 74 1;
#X restore 686 586 graph;
#X obj 691 698 soundfiler;
#X msg 691 667 read -resize chime.wav chime;
#X obj 685 437 tabplay~ chime;
#X obj 685 515 dac~;
#X text 586 360 apex trigger;
#X text 812 585 NOTE: make sure WAV files are 48kHz sample rate, f 11;
#X text 552 90 sensor stand-in raw value;
#X obj 968 157 f;
#X obj 947 200 -;
#X msg 1008 120 0, f 2;
#X obj 930 81 t f f b;
#X floatatom 732 89 5 0 0 0 - - - 0;
#X obj 572 51 hsl 170 19 30 170 0 0 empty empty empty -2 -10 0 12 #fcfcfc #000000 #000000 0 1;
#X obj 517 172 line;
#X text 438 145 smoothing;
#X text 841 146 detect change in direction, f 11;
#X obj 329 282 spigot;
#X obj 334 322 f;
#X text 218 277 audible pitch stored memory, f 15;
#X obj 682 268 == 0;
#X msg 914 343 0;
#X obj 957 390 f;
#X obj 967 290 sel 1;
#X msg 979 343 1;
#X text 1034 324 0 = falling -> delayed mute \, 1 = not falling -> cancel mute + keep maing tone on, f 28;
#X text 977 200 DIFF;
#X obj 907 290 sel 1;
#X obj 946 428 change;
#X obj 939 466 sel 1 0;
#X text 795 241 DIFF threshold;
#X msg 614 429 0 20;
#X text 775 504 Unmute over __ms;
#X text 1025 509 Mute over __ms;
#X obj 517 142 pack f 150;
#X obj 382 595 osc~;
#X obj 472 595 osc~;
#X obj 326 596 osc~;
#X obj 339 693 +~;
#X obj 380 723 +~;
#X obj 378 752 lop~ 1500;
#X obj 386 566 *~ 2;
#X obj 467 566 *~ 3;
#X obj 201 516 noise~;
#X obj 201 561 bp~ 1000 4;
#X obj 532 595 osc~;
#X obj 527 566 *~ 4;
#X obj 439 688 +~;
#X obj 235 682 sig~;
#X text 274 345 pitch control valve, f 7;
#X obj 196 705 *~;
#X obj 266 776 +~;
#X obj 260 505 * 8;
#X text 151 515 AIRY SOUND, f 5;
#X text 289 551 SYNTH SOUND, f 5;
#X text 435 799 main volume;
#X obj 904 240 < -0.1;
#X obj 900 505 0.1 200;
#X obj 603 782 delwrite~ mydelay 300;
#X obj 600 811 delread~ mydelay 90;
#X text 767 794 "reverb";
#X obj 597 853 *~ 0.6;
#X text 624 662 Click to load WAV, f 8;
#X obj 376 647 *~ 0.01;
#X obj 444 646 *~ 0.005;
#X obj 512 646 *~ 0.002;
#X obj 309 644 *~ 0.1;
#X obj 984 508 0 400;
#X text 634 466 Chime Volume, f 6;
#X obj 685 473 *~ 0.25;
#X msg 163 628 0.15;
#X text 105 613 Click to load volume value, f 7;
#X obj 966 240 > 0.2;
#X obj 1715 900 dac~;
#X obj 1670 798 *~;
#X obj 1724 739 line~;
#X obj 1484 360 pack f 50;
#X obj 1470 409 line~;
#X obj 1810 311 change;
#N canvas 0 50 450 250 (subpatch) 0;
#X array chime 25909 float 2;
#A color 0;
#A width 2;
#X coords 0 1 25909 -1 113 74 1;
#X restore 1837 587 graph;
#X obj 1842 699 soundfiler;
#X msg 1842 668 read -resize chime.wav chime;
#X obj 1836 438 tabplay~ chime;
#X obj 1836 516 dac~;
#X text 1723 312 apex trigger;
#X text 1963 586 NOTE: make sure WAV files are 48kHz sample rate, f 11;
#X text 1703 91 sensor stand-in raw value;
#X obj 2119 158 f;
#X obj 2098 201 -;
#X msg 2159 121 0, f 2;
#X obj 2081 82 t f f b;
#X floatatom 1883 90 5 0 0 0 - - - 0;
#X obj 1321 48 hsl 900 19 30 900 0 0 empty empty empty -2 -10 0 12 #fcfcfc #000000 #000000 0 1;
#X obj 1668 173 line;
#X text 1589 146 smoothing;
#X text 1992 147 detect change in direction, f 11;
#X obj 1480 283 spigot;
#X obj 1485 323 f;
#X text 1369 278 audible pitch stored memory, f 15;
#X obj 1833 269 == 0;
#X msg 2065 344 0;
#X obj 2108 391 f;
#X obj 2118 291 sel 1;
#X msg 2130 344 1;
#X text 2185 325 0 = falling -> delayed mute \, 1 = not falling -> cancel mute + keep maing tone on, f 28;
#X text 2128 201 DIFF;
#X obj 2058 291 sel 1;
#X obj 2097 429 change;
#X obj 2090 467 sel 1 0;
#X text 1946 242 DIFF threshold;
#X msg 1765 430 0 20;
#X text 1926 505 Unmute over __ms;
#X text 2176 510 Mute over __ms;
#X obj 1668 143 pack f 150;
#X obj 1533 596 osc~;
#X obj 1623 596 osc~;
#X obj 1477 597 osc~;
#X obj 1490 694 +~;
#X obj 1531 724 +~;
#X obj 1529 753 lop~ 1500;
#X obj 1537 567 *~ 2;
#X obj 1618 567 *~ 3;
#X obj 1352 517 noise~;
#X obj 1352 562 bp~ 1000 4;
#X obj 1683 596 osc~;
#X obj 1678 567 *~ 4;
#X obj 1590 689 +~;
#X obj 1386 683 sig~;
#X text 1425 346 pitch control valve, f 7;
#X obj 1347 706 *~;
#X obj 1417 777 +~;
#X obj 1411 506 * 8;
#X text 1302 516 AIRY SOUND, f 5;
#X text 1440 552 SYNTH SOUND, f 5;
#X text 1586 800 main volume;
#X obj 2055 241 < -0.1;
#X obj 2051 506 0.1 200;
#X obj 1754 783 delwrite~ mydelay 300;
#X obj 1751 812 delread~ mydelay 90;
#X text 1918 795 "reverb";
#X obj 1748 854 *~ 0.6;
#X text 1775 663 Click to load WAV, f 8;
#X obj 1527 648 *~ 0.01;
#X obj 1595 647 *~ 0.005;
#X obj 1663 647 *~ 0.002;
#X obj 1460 645 *~ 0.1;
#X obj 2135 509 0 400;
#X obj 1482 243 clip 30 900;
#X obj 1834 360 sel 900;
#X text 1785 467 Chime Volume, f 6;
#X obj 1836 474 *~ 0.25;
#X msg 1314 629 0.15;
#X text 1256 614 Click to load volume value, f 7;
#X obj 2117 241 > 0.2;
#X obj 331 242 clip 30 170;
#X obj 683 359 sel 170;
#X text 285 242 range;
#X text 621 15 TUBE #1;
#X text 1728 23 TUBE #10 (Tallest);
#X connect 1 0 64 0;
#X connect 1 0 0 0;
#X connect 1 0 0 1;
#X connect 2 0 1 1;
#X connect 3 0 4 0;
#X connect 4 0 43 0;
#X connect 4 0 47 0;
#X connect 4 0 48 0;
#X connect 4 0 52 0;
#X connect 5 0 161 0;
#X connect 8 0 7 0;
#X connect 9 0 75 0;
#X connect 14 0 15 1;
#X connect 15 0 62 0;
#X connect 15 0 78 0;
#X connect 16 0 14 1;
#X connect 17 0 14 1;
#X connect 17 1 15 0;
#X connect 17 2 14 0;
#X connect 18 0 40 0;
#X connect 19 0 18 0;
#X connect 20 0 160 0;
#X connect 23 0 24 0;
#X connect 24 0 3 0;
#X connect 26 0 23 1;
#X connect 27 0 28 0;
#X connect 28 0 23 1;
#X connect 28 0 34 0;
#X connect 29 0 30 0;
#X connect 30 0 28 0;
#X connect 33 0 27 0;
#X connect 34 0 35 0;
#X connect 35 0 63 0;
#X connect 35 1 73 0;
#X connect 37 0 2 0;
#X connect 40 0 20 0;
#X connect 41 0 69 0;
#X connect 42 0 70 0;
#X connect 43 0 72 0;
#X connect 44 0 45 0;
#X connect 45 0 46 0;
#X connect 47 0 41 0;
#X connect 48 0 42 0;
#X connect 49 0 50 0;
#X connect 50 0 56 0;
#X connect 51 0 71 0;
#X connect 52 0 51 0;
#X connect 53 0 45 1;
#X connect 54 0 56 1;
#X connect 56 0 57 0;
#X connect 57 0 1 0;
#X connect 58 0 50 1;
#X connect 62 0 26 0;
#X connect 62 0 33 0;
#X connect 63 0 2 0;
#X connect 65 0 67 0;
#X connect 67 0 0 0;
#X connect 67 0 0 1;
#X connect 69 0 44 1;
#X connect 70 0 53 0;
#X connect 71 0 53 1;
#X connect 72 0 44 0;
#X connect 73 0 2 0;
#X connect 75 0 10 0;
#X connect 75 0 10 1;
#X connect 76 0 54 0;
#X connect 78 0 29 0;
#X connect 80 0 143 0;
#X connect 80 0 79 0;
#X connect 80 0 79 1;
#X connect 81 0 80 1;
#X connect 82 0 83 0;
#X connect 83 0 122 0;
#X connect 83 0 126 0;
#X connect 83 0 127 0;
#X connect 83 0 131 0;
#X connect 84 0 154 0;
#X connect 87 0 86 0;
#X connect 88 0 156 0;
#X connect 93 0 94 1;
#X connect 94 0 141 0;
#X connect 94 0 159 0;
#X connect 95 0 93 1;
#X connect 96 0 93 1;
#X connect 96 1 94 0;
#X connect 96 2 93 0;
#X connect 97 0 119 0;
#X connect 98 0 97 0;
#X connect 99 0 153 0;
#X connect 102 0 103 0;
#X connect 103 0 82 0;
#X connect 105 0 102 1;
#X connect 106 0 107 0;
#X connect 107 0 102 1;
#X connect 107 0 113 0;
#X connect 108 0 109 0;
#X connect 109 0 107 0;
#X connect 112 0 106 0;
#X connect 113 0 114 0;
#X connect 114 0 142 0;
#X connect 114 1 152 0;
#X connect 116 0 81 0;
#X connect 119 0 99 0;
#X connect 120 0 148 0;
#X connect 121 0 149 0;
#X connect 122 0 151 0;
#X connect 123 0 124 0;
#X connect 124 0 125 0;
#X connect 126 0 120 0;
#X connect 127 0 121 0;
#X connect 128 0 129 0;
#X connect 129 0 135 0;
#X connect 130 0 150 0;
#X connect 131 0 130 0;
#X connect 132 0 124 1;
#X connect 133 0 135 1;
#X connect 135 0 136 0;
#X connect 136 0 80 0;
#X connect 137 0 129 1;
#X connect 141 0 105 0;
#X connect 141 0 112 0;
#X connect 142 0 81 0;
#X connect 144 0 146 0;
#X connect 146 0 79 0;
#X connect 146 0 79 1;
#X connect 148 0 123 1;
#X connect 149 0 132 0;
#X connect 150 0 132 1;
#X connect 151 0 123 0;
#X connect 152 0 81 0;
#X connect 153 0 84 0;
#X connect 153 0 96 0;
#X connect 153 0 102 0;
#X connect 153 0 137 0;
#X connect 154 0 116 0;
#X connect 154 0 88 0;
#X connect 156 0 89 0;
#X connect 156 0 89 1;
#X connect 157 0 133 0;
#X connect 159 0 108 0;
#X connect 160 0 5 0;
#X connect 160 0 17 0;
#X connect 160 0 23 0;
#X connect 160 0 58 0;
#X connect 161 0 37 0;
#X connect 161 0 9 0;
